<svg version="1.1" xmlns="http://www.w3.org/2000/svg" viewBox="0 0 863.1855468750002 591.1714103604587" width="1726.3710937500005" height="1182.3428207209174">
  <!-- svg-source:excalidraw -->
  
  <g stroke-linecap="round" transform="translate(10 10.892578125) rotate(0 203.06955007032448 136.66545015477723)"><path d="M32 0 M32 0 C131.15 1.59, 232.09 1.57, 374.14 0 M32 0 C111.45 2.23, 190.83 2.26, 374.14 0 M374.14 0 C395.37 -1.95, 407.07 10.97, 406.14 32 M374.14 0 C394.8 2.28, 405.03 12.82, 406.14 32 M406.14 32 C406.36 84.97, 402.86 134.84, 406.14 241.33 M406.14 32 C405.09 85.04, 405.88 137.46, 406.14 241.33 M406.14 241.33 C406.56 262.3, 397.33 274.39, 374.14 273.33 M406.14 241.33 C405.99 262.27, 395.34 271.97, 374.14 273.33 M374.14 273.33 C280.36 273.55, 183.96 274.53, 32 273.33 M374.14 273.33 C244.69 272.26, 116.05 272.17, 32 273.33 M32 273.33 C8.91 272.93, -0.57 262.93, 0 241.33 M32 273.33 C12.95 272.14, -0.01 262.4, 0 241.33 M0 241.33 C-2.05 195.11, -1.89 145.6, 0 32 M0 241.33 C-0.34 172.41, -0.51 102.39, 0 32 M0 32 C-1.97 11.45, 10.79 0.56, 32 0 M0 32 C0.38 11.86, 8.77 1.18, 32 0" stroke="#000000" stroke-width="1" fill="none"></path></g><g transform="translate(25.83984375 28.955078125) rotate(0 182.23587036132812 84)"><text x="0" y="0" font-family="sans-serif" font-size="20.089311617092587px" fill="#000000" text-anchor="start" style="white-space: pre;" direction="ltr" dominant-baseline="text-before-edge">Server</text><text x="0" y="23.999999999999996" font-family="sans-serif" font-size="20.089311617092587px" fill="#000000" text-anchor="start" style="white-space: pre;" direction="ltr" dominant-baseline="text-before-edge">- Higher power consumption</text><text x="0" y="47.99999999999999" font-family="sans-serif" font-size="20.089311617092587px" fill="#000000" text-anchor="start" style="white-space: pre;" direction="ltr" dominant-baseline="text-before-edge">- Linux</text><text x="0" y="71.99999999999999" font-family="sans-serif" font-size="20.089311617092587px" fill="#000000" text-anchor="start" style="white-space: pre;" direction="ltr" dominant-baseline="text-before-edge">- Mostly sleeps, wakes up on demand</text><text x="0" y="95.99999999999999" font-family="sans-serif" font-size="20.089311617092587px" fill="#000000" text-anchor="start" style="white-space: pre;" direction="ltr" dominant-baseline="text-before-edge"></text><text x="0" y="119.99999999999999" font-family="sans-serif" font-size="20.089311617092587px" fill="#000000" text-anchor="start" style="white-space: pre;" direction="ltr" dominant-baseline="text-before-edge">Wake-on-LAN with unicast packets</text><text x="0" y="143.99999999999997" font-family="sans-serif" font-size="20.089311617092587px" fill="#000000" text-anchor="start" style="white-space: pre;" direction="ltr" dominant-baseline="text-before-edge"></text></g><g stroke-linecap="round" transform="translate(481.896484375 10) rotate(0 185.6445312500001 123.6953125)"><path d="M32 0 M32 0 C142.41 1.86, 250.88 3.24, 339.29 0 M32 0 C117.74 -0.18, 203.19 -0.43, 339.29 0 M339.29 0 C358.8 1.12, 370.44 10.85, 371.29 32 M339.29 0 C361.24 1.14, 372.93 10.97, 371.29 32 M371.29 32 C372.27 77.69, 371.91 126.29, 371.29 215.39 M371.29 32 C371.11 74.71, 370.8 118.34, 371.29 215.39 M371.29 215.39 C370.9 236.46, 361.82 246.05, 339.29 247.39 M371.29 215.39 C371.91 237.44, 359.93 248.56, 339.29 247.39 M339.29 247.39 C237.37 245.02, 136.55 245.14, 32 247.39 M339.29 247.39 C249 248.08, 158.52 247.24, 32 247.39 M32 247.39 C12.05 247.75, 0.91 238.54, 0 215.39 M32 247.39 C12.41 246.72, 0.64 238.22, 0 215.39 M0 215.39 C2.07 147.3, 2.11 82.94, 0 32 M0 215.39 C1.04 158.83, -0.02 103.51, 0 32 M0 32 C1.23 8.98, 9.94 -1.68, 32 0 M0 32 C-0.01 10.77, 9.86 0.63, 32 0" stroke="#000000" stroke-width="1" fill="none"></path></g><g transform="translate(495.9140625 27.865234375) rotate(0 118.70989227294922 48)"><text x="0" y="0" font-family="sans-serif" font-size="20px" fill="#000000" text-anchor="start" style="white-space: pre;" direction="ltr" dominant-baseline="text-before-edge">"Friendly neighbor" device</text><text x="0" y="24" font-family="sans-serif" font-size="20px" fill="#000000" text-anchor="start" style="white-space: pre;" direction="ltr" dominant-baseline="text-before-edge">- Low power consumption</text><text x="0" y="48" font-family="sans-serif" font-size="20px" fill="#000000" text-anchor="start" style="white-space: pre;" direction="ltr" dominant-baseline="text-before-edge">- Linux</text><text x="0" y="72" font-family="sans-serif" font-size="20px" fill="#000000" text-anchor="start" style="white-space: pre;" direction="ltr" dominant-baseline="text-before-edge">- Always-on</text></g><g stroke-linecap="round" transform="translate(43.1222619082173 214.48317925168544) rotate(0 49 26.5)"><path d="M13.25 0 M13.25 0 C38.43 1.1, 64.39 -0.01, 84.75 0 M13.25 0 C29.53 1.24, 47.61 0.87, 84.75 0 M84.75 0 C94.86 -1.99, 97.33 3, 98 13.25 M84.75 0 C92.15 -1.67, 100.08 6.21, 98 13.25 M98 13.25 C97.9 21.06, 98.46 26.96, 98 39.75 M98 13.25 C97.98 23.69, 97.2 32.28, 98 39.75 M98 39.75 C97.05 49.54, 95.16 51.54, 84.75 53 M98 39.75 C97.56 50.08, 92.28 54.87, 84.75 53 M84.75 53 C65.05 52.52, 46.12 54.63, 13.25 53 M84.75 53 C60.12 53.18, 36.85 53.72, 13.25 53 M13.25 53 C4.6 53.96, 0.47 49.7, 0 39.75 M13.25 53 C2.67 51.73, 1.61 46.68, 0 39.75 M0 39.75 C1.17 34.53, 0.59 25.38, 0 13.25 M0 39.75 C0.43 29.93, 0.77 22.95, 0 13.25 M0 13.25 C-1.49 2.49, 6.37 -0.83, 13.25 0 M0 13.25 C-2.22 3.62, 3.98 -1.01, 13.25 0" stroke="#000000" stroke-width="1" fill="none"></path></g><g transform="translate(74.45227899806105 228.98317925168544) rotate(0 17.66998291015625 12)"><text x="17.66998291015625" y="0" font-family="sans-serif" font-size="20px" fill="#000000" text-anchor="middle" style="white-space: pre;" direction="ltr" dominant-baseline="text-before-edge">SSH</text></g><g stroke-linecap="round" transform="translate(157.1535119082173 214.69411675168544) rotate(0 49 26.5)"><path d="M13.25 0 M13.25 0 C32.99 -1.88, 57.02 -1.71, 84.75 0 M13.25 0 C28.26 0.41, 43.6 -0.08, 84.75 0 M84.75 0 C92.28 1.87, 99.88 2.53, 98 13.25 M84.75 0 C93.94 1.07, 96.37 6.46, 98 13.25 M98 13.25 C97.08 18.46, 97.75 26.92, 98 39.75 M98 13.25 C97.27 23.19, 98.78 33.2, 98 39.75 M98 39.75 C98.69 46.86, 94.98 52.01, 84.75 53 M98 39.75 C99.47 50.52, 93.11 52.14, 84.75 53 M84.75 53 C65.49 52.28, 44.46 53.06, 13.25 53 M84.75 53 C68.51 53.34, 52.32 53.43, 13.25 53 M13.25 53 C3.84 54.7, 1.2 47.91, 0 39.75 M13.25 53 C6.58 54.39, 1.7 49.38, 0 39.75 M0 39.75 C-0.37 33.31, 1.22 22.29, 0 13.25 M0 39.75 C0.59 32.54, -0.75 25.83, 0 13.25 M0 13.25 C-0.19 5.9, 3.99 0, 13.25 0 M0 13.25 C-1.77 2.45, 5.91 -1.1, 13.25 0" stroke="#000000" stroke-width="1" fill="none"></path></g><g transform="translate(187.24352350489698 229.19411675168544) rotate(0 18.909988403320312 12)"><text x="18.909988403320312" y="0" font-family="sans-serif" font-size="20px" fill="#000000" text-anchor="middle" style="white-space: pre;" direction="ltr" dominant-baseline="text-before-edge">AFP</text></g><g stroke-linecap="round" transform="translate(275.2160119082173 212.35036675168544) rotate(0 49 26.5)"><path d="M13.25 0 M13.25 0 C27.96 1.67, 41.58 -0.55, 84.75 0 M13.25 0 C41.68 -0.19, 69.22 -0.32, 84.75 0 M84.75 0 C94.94 1.91, 97.71 4.34, 98 13.25 M84.75 0 C92.28 1.76, 99.29 2.25, 98 13.25 M98 13.25 C97.34 21.1, 97.59 33.3, 98 39.75 M98 13.25 C98.75 22.31, 98.52 32.48, 98 39.75 M98 39.75 C98.78 48.9, 92.38 51.34, 84.75 53 M98 39.75 C97.75 48.27, 92.01 52.52, 84.75 53 M84.75 53 C66.05 53.25, 48.2 52.32, 13.25 53 M84.75 53 C69.03 52.94, 53.18 53.5, 13.25 53 M13.25 53 C3.06 54.42, -0.82 50.27, 0 39.75 M13.25 53 C2.27 51.39, 2.23 47.48, 0 39.75 M0 39.75 C-0.65 29.39, -1.76 22.11, 0 13.25 M0 39.75 C0.4 29.95, -0.77 19.56, 0 13.25 M0 13.25 C1.61 3.03, 5.62 1.3, 13.25 0 M0 13.25 C-2.01 2.2, 4.03 1.95, 13.25 0" stroke="#000000" stroke-width="1" fill="none"></path></g><g transform="translate(315.9960183169087 226.85036675168544) rotate(0 8.219993591308594 12)"><text x="8.219993591308594" y="0" font-family="sans-serif" font-size="20px" fill="#000000" text-anchor="middle" style="white-space: pre;" direction="ltr" dominant-baseline="text-before-edge">...</text></g><g transform="translate(46.7589806582173 186.5628667516853) rotate(0 65.51995086669922 9.599999999999994)"><text x="0" y="0" font-family="sans-serif" font-size="16px" fill="#000000" text-anchor="start" style="white-space: pre;" direction="ltr" dominant-baseline="text-before-edge">Network services</text></g><g transform="translate(499.3550491333008 145.4644531250001) rotate(0 65.51995086669922 9.599999999999994)"><text x="0" y="0" font-family="sans-serif" font-size="16px" fill="#000000" text-anchor="start" style="white-space: pre;" direction="ltr" dominant-baseline="text-before-edge">Network services</text></g><g stroke-linecap="round" transform="translate(501.8828125 177.974609375) rotate(0 49 29)"><path d="M14.5 0 M14.5 0 C37.63 -1.45, 61.73 -1.24, 83.5 0 M14.5 0 C38.34 -0.87, 60.65 -1.34, 83.5 0 M83.5 0 C94.99 0.22, 98.24 4.18, 98 14.5 M83.5 0 C92.47 -1.98, 97.95 4.38, 98 14.5 M98 14.5 C99.38 26.33, 97.76 35.62, 98 43.5 M98 14.5 C98.53 21.84, 98.59 30.14, 98 43.5 M98 43.5 C96.53 52.73, 92.26 56.42, 83.5 58 M98 43.5 C100.02 54.81, 92.66 60.25, 83.5 58 M83.5 58 C59.44 58.79, 38.52 58.91, 14.5 58 M83.5 58 C70.29 58.57, 56.27 58.88, 14.5 58 M14.5 58 C5.61 56.95, 1.76 51.87, 0 43.5 M14.5 58 C3.21 56.03, 0.84 51.81, 0 43.5 M0 43.5 C-1.19 38.03, -0.64 30.16, 0 14.5 M0 43.5 C0.84 32.29, 0.33 21.29, 0 14.5 M0 14.5 C0.49 6.73, 6.55 -1.94, 14.5 0 M0 14.5 C-0.47 6.46, 2.61 -0.31, 14.5 0" stroke="#000000" stroke-width="1" fill="none"></path></g><g transform="translate(510.50284576416016 182.974609375) rotate(0 40.379966735839844 24)"><text x="40.379966735839844" y="0" font-family="sans-serif" font-size="20px" fill="#000000" text-anchor="middle" style="white-space: pre;" direction="ltr" dominant-baseline="text-before-edge">Friendly </text><text x="40.379966735839844" y="24" font-family="sans-serif" font-size="20px" fill="#000000" text-anchor="middle" style="white-space: pre;" direction="ltr" dominant-baseline="text-before-edge">Neighbor</text></g><g stroke-linecap="round" transform="translate(615.9140625 178.185546875) rotate(0 49 26.5)"><path d="M13.25 0 M13.25 0 C30.62 -0.88, 51.82 -0.12, 84.75 0 M13.25 0 C40.53 -0.56, 68.96 0.32, 84.75 0 M84.75 0 C93.82 -0.65, 97.4 2.69, 98 13.25 M84.75 0 C93.53 -0.46, 99.67 5.02, 98 13.25 M98 13.25 C97.85 19.17, 97.49 24.94, 98 39.75 M98 13.25 C98.94 21.74, 97.45 29.55, 98 39.75 M98 39.75 C97.09 47.01, 95.34 54.43, 84.75 53 M98 39.75 C97.5 50.83, 94.27 51.64, 84.75 53 M84.75 53 C69 54.87, 50.24 54.27, 13.25 53 M84.75 53 C63.56 54.27, 41.93 52.87, 13.25 53 M13.25 53 C6.18 51.7, -1.41 46.87, 0 39.75 M13.25 53 C5.25 51.64, -1.28 48.16, 0 39.75 M0 39.75 C-0.53 30.56, 2.13 20.16, 0 13.25 M0 39.75 C0.16 33.49, 0 26.41, 0 13.25 M0 13.25 C1.72 2.48, 4 1.42, 13.25 0 M0 13.25 C-2.22 4.11, 2.74 2.09, 13.25 0" stroke="#000000" stroke-width="1" fill="none"></path></g><g transform="translate(639.3240814208984 192.685546875) rotate(0 25.589981079101562 12)"><text x="25.589981079101562" y="0" font-family="sans-serif" font-size="20px" fill="#000000" text-anchor="middle" style="white-space: pre;" direction="ltr" dominant-baseline="text-before-edge">Avahi</text></g><g stroke-linecap="round" transform="translate(733.9765625 175.841796875) rotate(0 49 26.5)"><path d="M13.25 0 M13.25 0 C29.34 -0.2, 45.68 1.92, 84.75 0 M13.25 0 C33.5 0.66, 52.05 0.22, 84.75 0 M84.75 0 C92.98 -1.72, 97.96 4.02, 98 13.25 M84.75 0 C95.25 0.61, 96.66 5.92, 98 13.25 M98 13.25 C97.27 21.45, 98.19 33.26, 98 39.75 M98 13.25 C97.46 20, 97.75 26.4, 98 39.75 M98 39.75 C99.76 50.01, 93.14 54.96, 84.75 53 M98 39.75 C98.68 47.23, 91.91 51.49, 84.75 53 M84.75 53 C56.7 54.31, 32.68 54.73, 13.25 53 M84.75 53 C59.73 53.1, 34.81 52.97, 13.25 53 M13.25 53 C3.01 51.29, 0.73 47.4, 0 39.75 M13.25 53 C3.14 52.58, 1.8 47.15, 0 39.75 M0 39.75 C2.06 30.11, -0.52 21.36, 0 13.25 M0 39.75 C0.14 31.86, 0.75 21.1, 0 13.25 M0 13.25 C-0.41 5.83, 2.48 -0.27, 13.25 0 M0 13.25 C-1.68 6.51, 2.56 -0.02, 13.25 0" stroke="#000000" stroke-width="1" fill="none"></path></g><g transform="translate(774.7565689086914 190.341796875) rotate(0 8.219993591308594 12)"><text x="8.219993591308594" y="0" font-family="sans-serif" font-size="20px" fill="#000000" text-anchor="middle" style="white-space: pre;" direction="ltr" dominant-baseline="text-before-edge">...</text></g><g stroke-linecap="round" transform="translate(373.8440757531936 455.2348085509765) rotate(0 56.910104852157076 62.96830090474111)"><path d="M113.82 62.97 C113.82 65.5, 113.68 68.05, 113.41 70.56 C113.13 73.07, 112.71 75.58, 112.17 78.04 C111.62 80.49, 110.93 82.93, 110.12 85.3 C109.31 87.66, 108.36 89.99, 107.3 92.23 C106.24 94.47, 105.05 96.66, 103.75 98.74 C102.45 100.82, 101.02 102.83, 99.51 104.72 C97.99 106.62, 96.36 108.42, 94.65 110.1 C92.94 111.78, 91.12 113.35, 89.24 114.79 C87.36 116.23, 85.38 117.55, 83.36 118.72 C81.33 119.9, 79.23 120.95, 77.09 121.84 C74.95 122.74, 72.75 123.5, 70.53 124.11 C68.31 124.71, 66.04 125.17, 63.77 125.48 C61.5 125.78, 59.2 125.94, 56.91 125.94 C54.62 125.94, 52.32 125.78, 50.05 125.48 C47.78 125.17, 45.51 124.71, 43.29 124.11 C41.07 123.5, 38.87 122.74, 36.73 121.84 C34.59 120.95, 32.49 119.9, 30.46 118.72 C28.44 117.55, 26.46 116.23, 24.58 114.79 C22.7 113.35, 20.88 111.78, 19.17 110.1 C17.46 108.42, 15.83 106.62, 14.31 104.72 C12.8 102.83, 11.37 100.82, 10.07 98.74 C8.78 96.66, 7.58 94.47, 6.52 92.23 C5.46 89.99, 4.51 87.66, 3.7 85.3 C2.89 82.93, 2.2 80.49, 1.65 78.04 C1.11 75.58, 0.69 73.07, 0.41 70.56 C0.14 68.05, 0 65.5, 0 62.97 C0 60.44, 0.14 57.89, 0.41 55.38 C0.69 52.87, 1.11 50.36, 1.65 47.9 C2.2 45.44, 2.89 43.01, 3.7 40.64 C4.51 38.27, 5.46 35.95, 6.52 33.71 C7.58 31.47, 8.78 29.28, 10.07 27.2 C11.37 25.12, 12.8 23.11, 14.31 21.21 C15.83 19.32, 17.46 17.51, 19.17 15.84 C20.88 14.16, 22.7 12.58, 24.58 11.15 C26.46 9.71, 28.44 8.39, 30.46 7.21 C32.49 6.04, 34.59 4.99, 36.73 4.09 C38.87 3.19, 41.07 2.44, 43.29 1.83 C45.51 1.22, 47.78 0.76, 50.05 0.46 C52.32 0.15, 54.62 0, 56.91 0 C59.2 0, 61.5 0.15, 63.77 0.46 C66.04 0.76, 68.31 1.22, 70.53 1.83 C72.75 2.44, 74.95 3.19, 77.09 4.09 C79.23 4.99, 81.33 6.04, 83.36 7.21 C85.38 8.39, 87.36 9.71, 89.24 11.15 C91.12 12.58, 92.94 14.16, 94.65 15.84 C96.36 17.51, 97.99 19.32, 99.51 21.21 C101.02 23.11, 102.45 25.12, 103.75 27.2 C105.05 29.28, 106.24 31.47, 107.3 33.71 C108.36 35.95, 109.31 38.27, 110.12 40.64 C110.93 43.01, 111.62 45.44, 112.17 47.9 C112.71 50.36, 113.13 52.87, 113.41 55.38 C113.68 57.89, 113.82 60.44, 113.82 62.97" stroke="transparent" stroke-width="1" fill="none"></path></g><g stroke-linecap="round"><g transform="translate(400.85034314452827 527.6639364930234) rotate(0 9.105984708774344 -7.308701276548675)"><path d="M0 0 C1.03 -0.56, 4.15 -3.34, 6.16 -3.36 C8.17 -3.38, 10.19 -0.23, 12.09 -0.14 C13.99 -0.05, 16.54 -0.42, 17.55 -2.84 C18.57 -5.25, 18.08 -12.65, 18.18 -14.62 M0 0 C1.03 -0.56, 4.15 -3.34, 6.16 -3.36 C8.17 -3.38, 10.19 -0.23, 12.09 -0.14 C13.99 -0.05, 16.54 -0.42, 17.55 -2.84 C18.57 -5.25, 18.08 -12.65, 18.18 -14.62" stroke="#495057" stroke-width="1" fill="none"></path></g></g><mask></mask><g stroke-linecap="round"><g transform="translate(449.9184521553664 569.4201245351193) rotate(0 3.7577254828540276 -10.470811170895502)"><path d="M0 0 C1.02 -0.72, 3.93 -4.01, 6.12 -4.33 C8.31 -4.64, 11 -1.06, 13.13 -1.92 C15.26 -2.78, 21.56 -6.33, 18.93 -9.47 C16.29 -12.61, 2.5 -19.6, -2.66 -20.76 C-7.82 -21.92, -10.48 -17.15, -12.04 -16.43 M0 0 C1.02 -0.72, 3.93 -4.01, 6.12 -4.33 C8.31 -4.64, 11 -1.06, 13.13 -1.92 C15.26 -2.78, 21.56 -6.33, 18.93 -9.47 C16.29 -12.61, 2.5 -19.6, -2.66 -20.76 C-7.82 -21.92, -10.48 -17.15, -12.04 -16.43" stroke="#495057" stroke-width="1" fill="none"></path></g></g><mask></mask><g stroke-linecap="round"><g transform="translate(367.7661269746686 537.1489886442951) rotate(0 38.41228585168946 10.32979119288467)" fill-rule="evenodd"><path d="M0 0 L0.16 4.23 L56.26 36.88 L76.11 22.6 L76.82 16.16 L21.19 -16.22 L0 0" stroke="none" stroke-width="0" fill="#ced4da" fill-rule="evenodd"></path><path d="M0 0 C0.03 0.87, 0.07 1.74, 0.16 4.23 M0 0 C0.06 1.67, 0.13 3.33, 0.16 4.23 M0.16 4.23 C18.56 14.94, 36.96 25.65, 56.26 36.88 M0.16 4.23 C16.02 13.46, 31.88 22.69, 56.26 36.88 M56.26 36.88 C63.57 31.62, 70.88 26.36, 76.11 22.6 M56.26 36.88 C63.92 31.37, 71.59 25.85, 76.11 22.6 M76.11 22.6 C76.26 21.25, 76.41 19.9, 76.82 16.16 M76.11 22.6 C76.33 20.61, 76.55 18.63, 76.82 16.16 M76.82 16.16 C60.74 6.8, 44.66 -2.56, 21.19 -16.22 M76.82 16.16 C57.22 4.75, 37.61 -6.67, 21.19 -16.22 M21.19 -16.22 C15.6 -11.95, 10.02 -7.67, 0 0 M21.19 -16.22 C14.52 -11.12, 7.85 -6.01, 0 0 M0 0 C0 0, 0 0, 0 0 M0 0 C0 0, 0 0, 0 0" stroke="#495057" stroke-width="2" fill="none"></path></g></g><mask></mask><g stroke-linecap="round"><g transform="translate(368.59418785500776 537.9352329817807) rotate(0 37.89393248433916 16.124322960408392)"><path d="M0 0 C21.1 12.31, 42.19 24.63, 55.25 32.25 M0 0 C17.61 10.28, 35.23 20.56, 55.25 32.25 M55.25 32.25 C61.3 27.17, 67.36 22.09, 75.79 15.02 M55.25 32.25 C63.39 25.42, 71.53 18.59, 75.79 15.02" stroke="#495057" stroke-width="1" fill="none"></path></g></g><mask></mask><g stroke-linecap="round"><g transform="translate(424.03718006208265 574.7024232972108) rotate(0 -0.02251184991439459 -2.152574735135488)"><path d="M0 0 C-0.01 -1.17, -0.02 -2.33, -0.05 -4.31 M0 0 C-0.02 -1.7, -0.04 -3.41, -0.05 -4.31" stroke="#495057" stroke-width="1" fill="none"></path></g></g><mask></mask><g stroke-linecap="round"><g transform="translate(388.09719656041966 525.2356294840444) rotate(0 8.383267251463565 15.251033060075088)" fill-rule="evenodd"><path d="M0 0 L-15.03 11.74 L17.82 30.5 L31.8 17.98 L0 0" stroke="none" stroke-width="0" fill="#495057" fill-rule="evenodd"></path><path d="M0 0 C-5.42 4.23, -10.84 8.46, -15.03 11.74 M0 0 C-3.54 2.77, -7.08 5.53, -15.03 11.74 M-15.03 11.74 C-5.62 17.11, 3.8 22.49, 17.82 30.5 M-15.03 11.74 C-3.31 18.43, 8.41 25.12, 17.82 30.5 M17.82 30.5 C20.72 27.91, 23.61 25.31, 31.8 17.98 M17.82 30.5 C20.83 27.81, 23.83 25.11, 31.8 17.98 M31.8 17.98 C21.59 12.2, 11.38 6.43, 0 0 M31.8 17.98 C20.75 11.73, 9.69 5.48, 0 0 M0 0 C0 0, 0 0, 0 0 M0 0 C0 0, 0 0, 0 0" stroke="#495057" stroke-width="1" fill="none"></path></g></g><mask></mask><g stroke-linecap="round"><g transform="translate(421.8450442361294 544.4620146050372) rotate(0 0.5849099078670577 3.7059752972332376)" fill-rule="evenodd"><path d="M0 0 L-4.72 4.33 L1.5 7.41 L5.89 3.33 L0 0" stroke="none" stroke-width="0" fill="#495057" fill-rule="evenodd"></path><path d="M0 0 C-1.54 1.41, -3.08 2.83, -4.72 4.33 M0 0 C-1.08 0.99, -2.17 1.99, -4.72 4.33 M-4.72 4.33 C-2.67 5.34, -0.63 6.35, 1.5 7.41 M-4.72 4.33 C-2.95 5.2, -1.19 6.08, 1.5 7.41 M1.5 7.41 C2.5 6.48, 3.51 5.54, 5.89 3.33 M1.5 7.41 C2.56 6.42, 3.62 5.44, 5.89 3.33 M5.89 3.33 C4.06 2.29, 2.23 1.26, 0 0 M5.89 3.33 C4.1 2.32, 2.32 1.31, 0 0 M0 0 C0 0, 0 0, 0 0 M0 0 C0 0, 0 0, 0 0" stroke="#495057" stroke-width="1" fill="none"></path></g></g><mask></mask><g stroke-linecap="round"><g transform="translate(429.94777778984974 548.8027647231022) rotate(0 -2.7429985159827197 8.818414325176434)" fill-rule="evenodd"><path d="M0 0 L-13.69 12.33 L-5.35 17.64 L8.2 5.35 L0 0" stroke="none" stroke-width="0" fill="#495057" fill-rule="evenodd"></path><path d="M0 0 C-4.21 3.8, -8.42 7.59, -13.69 12.33 M0 0 C-3.72 3.35, -7.44 6.7, -13.69 12.33 M-13.69 12.33 C-11.48 13.74, -9.28 15.14, -5.35 17.64 M-13.69 12.33 C-11.06 14.01, -8.43 15.68, -5.35 17.64 M-5.35 17.64 C-2.22 14.8, 0.91 11.96, 8.2 5.35 M-5.35 17.64 C-1.7 14.33, 1.95 11.01, 8.2 5.35 M8.2 5.35 C5.05 3.3, 1.91 1.24, 0 0 M8.2 5.35 C6.18 4.04, 4.17 2.72, 0 0 M0 0 C0 0, 0 0, 0 0 M0 0 C0 0, 0 0, 0 0" stroke="#495057" stroke-width="1" fill="none"></path></g></g><mask></mask><g stroke-linecap="round"><g transform="translate(436.6851569602778 576.2782885809762) rotate(0 7.4205288369886375 -2.7391022338633206)" fill-rule="evenodd"><path d="M0 0 L7.35 3.1 L14.84 -2.77 L14.64 -6.1 L8.61 -8.58 L0 0" stroke="none" stroke-width="0" fill="#ced4da" fill-rule="evenodd"></path><path d="M0 0 C2.17 0.92, 4.35 1.83, 7.35 3.1 M0 0 C2.04 0.86, 4.09 1.72, 7.35 3.1 M7.35 3.1 C9.95 1.06, 12.56 -0.98, 14.84 -2.77 M7.35 3.1 C9.48 1.43, 11.62 -0.25, 14.84 -2.77 M14.84 -2.77 C14.77 -4.01, 14.69 -5.25, 14.64 -6.1 M14.84 -2.77 C14.78 -3.72, 14.73 -4.68, 14.64 -6.1 M14.64 -6.1 C12.5 -6.98, 10.36 -7.85, 8.61 -8.58 M14.64 -6.1 C13.11 -6.73, 11.57 -7.36, 8.61 -8.58 M8.61 -8.58 C6.28 -6.26, 3.95 -3.94, 0 0 M8.61 -8.58 C6.25 -6.22, 3.89 -3.87, 0 0 M0 0 C0 0, 0 0, 0 0 M0 0 C0 0, 0 0, 0 0" stroke="#495057" stroke-width="2" fill="none"></path></g></g><mask></mask><g stroke-linecap="round"><g transform="translate(424.57998332603665 515.044460743234) rotate(0 18.00859769754257 6.711328300314847)" fill-rule="evenodd"><path d="M0 0 L0.16 13.54 L18.42 22.9 L35.3 10.96 L36.02 -2.14 L19.52 -9.48 L0 0" stroke="none" stroke-width="0" fill="#ced4da" fill-rule="evenodd"></path><path d="M0 0 C0.04 3.1, 0.08 6.2, 0.16 13.54 M0 0 C0.06 4.64, 0.11 9.27, 0.16 13.54 M0.16 13.54 C6.86 16.98, 13.56 20.41, 18.42 22.9 M0.16 13.54 C5.06 16.05, 9.95 18.56, 18.42 22.9 M18.42 22.9 C23.07 19.61, 27.72 16.32, 35.3 10.96 M18.42 22.9 C24.96 18.27, 31.5 13.64, 35.3 10.96 M35.3 10.96 C35.46 8.02, 35.62 5.09, 36.02 -2.14 M35.3 10.96 C35.46 8.07, 35.62 5.19, 36.02 -2.14 M36.02 -2.14 C30.42 -4.63, 24.82 -7.12, 19.52 -9.48 M36.02 -2.14 C31.96 -3.94, 27.91 -5.74, 19.52 -9.48 M19.52 -9.48 C11.78 -5.72, 4.04 -1.96, 0 0 M19.52 -9.48 C14.4 -7, 9.29 -4.51, 0 0 M0 0 C0 0, 0 0, 0 0 M0 0 C0 0, 0 0, 0 0" stroke="#495057" stroke-width="2" fill="none"></path></g></g><mask></mask><g stroke-linecap="round"><g transform="translate(418.90783148283106 457.4632218633068) rotate(0 28.836101900752112 37.36256272861988)" fill-rule="evenodd"><path d="M0 0 L9.5 0.12 L22.73 2.25 L38.75 9.01 L46.68 13.52 L52.56 18.36 L55.73 23.74 L57.07 29.74 L57.34 50.93 L55.12 59.43 L50.14 68.28 L47.04 71.97 L44.07 74.07 L39.57 74.22 L32.95 67.73 L18.29 49.55 L10.4 38.54 L4.86 29.18 L2.62 21.63 L2.45 14.85 L3.55 5.34" stroke="none" stroke-width="0" fill="#ced4da" fill-rule="evenodd"></path><path d="M0 0 C3.79 0.38, 13.97 -0.81, 22.73 2.25 C31.49 5.31, 46.76 11.84, 52.56 18.36 C58.36 24.88, 57.12 34.53, 57.54 41.37 C57.97 48.22, 57.37 53.98, 55.12 59.43 C52.87 64.88, 47.76 72.69, 44.07 74.07 C40.37 75.45, 39.49 75.21, 32.95 67.73 C26.42 60.24, 9.76 39.58, 4.86 29.18 C-0.04 18.78, 3.77 9.31, 3.55 5.34 M0 0 C3.79 0.38, 13.97 -0.81, 22.73 2.25 C31.49 5.31, 46.76 11.84, 52.56 18.36 C58.36 24.88, 57.12 34.53, 57.54 41.37 C57.97 48.22, 57.37 53.98, 55.12 59.43 C52.87 64.88, 47.76 72.69, 44.07 74.07 C40.37 75.45, 39.49 75.21, 32.95 67.73 C26.42 60.24, 9.76 39.58, 4.86 29.18 C-0.04 18.78, 3.77 9.31, 3.55 5.34" stroke="#495057" stroke-width="2" fill="none"></path></g></g><mask></mask><g stroke-linecap="round"><g transform="translate(402.8492676860603 495.09656806516534) rotate(0 34.401385727036825 1.5576416954319257)" fill-rule="evenodd"><path d="M0 0 L0.19 8.58 L1.67 14.29 L6.2 19.78 L15.75 25.71 L28.96 32.25 L48.17 39.65 L52.71 40.66 L58.83 40.49 L62.64 38.11 L65.01 33.86 L66.82 28.04 L68.23 19.46 L68.79 8.38 L68.5 -2.7 L67.36 -11.29 L65.57 -16.34 L63.05 -19.29 L46.62 -27.85 L27.17 -35.55 L19.17 -37.48 L13.4 -37.7 L8.85 -36.68 L5.32 -34.29 L2.59 -30.4 L0.9 -23.73 L0 0" stroke="none" stroke-width="0" fill="#ced4da" fill-rule="evenodd"></path><path d="M0 0 C1.03 3.3, -2.59 13, 6.2 19.78 C14.98 26.56, 42.6 39.29, 52.71 40.66 C62.81 42.04, 64.38 36.7, 66.82 28.04 C69.26 19.38, 69.45 -2.61, 67.36 -11.29 C65.27 -19.98, 62.32 -19.69, 54.28 -24.05 C46.25 -28.42, 27.79 -36.43, 19.17 -37.48 C10.56 -38.54, 5.79 -36.65, 2.59 -30.4 C-0.6 -24.15, 0.43 -5.07, 0 0 M0 0 C1.03 3.3, -2.59 13, 6.2 19.78 C14.98 26.56, 42.6 39.29, 52.71 40.66 C62.81 42.04, 64.38 36.7, 66.82 28.04 C69.26 19.38, 69.45 -2.61, 67.36 -11.29 C65.27 -19.98, 62.32 -19.69, 54.28 -24.05 C46.25 -28.42, 27.79 -36.43, 19.17 -37.48 C10.56 -38.54, 5.79 -36.65, 2.59 -30.4 C-0.6 -24.15, 0.43 -5.07, 0 0" stroke="#495057" stroke-width="2" fill="none"></path></g></g><mask></mask><g stroke-linecap="round"><g transform="translate(407.4224013963041 494.4564394409766) rotate(0 29.36310684986131 1.3767772230812625)" fill-rule="evenodd"><path d="M0 0 L0.3 7.23 L1.56 12.03 L5.21 16.62 L12.72 21.47 L33.68 31.27 L42.1 33.9 L47.71 34.48 L51.84 33.59 L54.81 31.09 L56.98 26.86 L58.34 19.73 L58.72 10.15 L57.16 -7.3 L55.52 -12.06 L53.25 -15.18 L45.62 -20.22 L31.02 -27.04 L22.82 -29.93 L16.11 -31.5 L7.44 -30.83 L2.18 -25.55 L0.76 -19.94 L0 0" stroke="none" stroke-width="0" fill="#343a40" fill-rule="evenodd"></path><path d="M0 0 C0.87 2.77, -1.81 10.97, 5.21 16.62 C12.23 22.27, 33.47 32.19, 42.1 33.9 C50.73 35.61, 54.47 33.72, 56.98 26.86 C59.49 19.99, 59.06 0.55, 57.16 -7.3 C55.27 -15.14, 52.46 -16.18, 45.62 -20.22 C38.78 -24.25, 23.36 -30.61, 16.11 -31.5 C8.87 -32.39, 4.86 -30.8, 2.18 -25.55 C-0.51 -20.3, 0.36 -4.26, 0 0 M0 0 C0.87 2.77, -1.81 10.97, 5.21 16.62 C12.23 22.27, 33.47 32.19, 42.1 33.9 C50.73 35.61, 54.47 33.72, 56.98 26.86 C59.49 19.99, 59.06 0.55, 57.16 -7.3 C55.27 -15.14, 52.46 -16.18, 45.62 -20.22 C38.78 -24.25, 23.36 -30.61, 16.11 -31.5 C8.87 -32.39, 4.86 -30.8, 2.18 -25.55 C-0.51 -20.3, 0.36 -4.26, 0 0" stroke="#495057" stroke-width="2" fill="none"></path></g></g><mask></mask><g mask="url(#mask-CFXhy0T1M56lvCnTxSyDJ)" stroke-linecap="round"><g transform="translate(399.12497785065887 457.744448103182) rotate(0 -94.21931654758131 -96.4059722733387)"><path d="M-0.27 -0.42 C-12.91 -14, -44.23 -48.74, -75.82 -80.43 C-107.4 -112.12, -170.64 -171.94, -189.77 -190.56 M1.79 -1.69 C-10.92 -14.57, -44.23 -47.24, -76.23 -79.02 C-108.24 -110.81, -171.19 -173.66, -190.22 -192.39" stroke="#000000" stroke-width="1" fill="none"></path></g><g transform="translate(399.12497785065887 457.744448103182) rotate(0 -94.21931654758131 -96.4059722733387)"><path d="M-163.68 -178.15 C-171.73 -182.68, -177.87 -187.8, -191.25 -192.5 M-163.56 -179.04 C-169.31 -183.08, -174.31 -185.62, -189.71 -191.7" stroke="#000000" stroke-width="1" fill="none"></path></g><g transform="translate(399.12497785065887 457.744448103182) rotate(0 -94.21931654758131 -96.4059722733387)"><path d="M-178.13 -163.57 C-181.95 -172.46, -183.74 -181.98, -191.25 -192.5 M-178.01 -164.47 C-180.71 -171.38, -182.78 -176.88, -189.71 -191.7" stroke="#000000" stroke-width="1" fill="none"></path></g></g><mask id="mask-CFXhy0T1M56lvCnTxSyDJ"><rect x="0" y="0" fill="#fff" width="689.4911033305831" height="749.2886322855952"></rect><rect x="217.3008727241231" y="365.57733111237405" fill="#000" width="209.99981689453125" height="24" opacity="1"></rect></mask><g transform="translate(217.3008727241231 365.57733111237394) rotate(0 87.60478857895444 -4.238855282530665)"><text x="104.99990844726562" y="0" font-family="sans-serif" font-size="20px" fill="#000000" text-anchor="middle" style="white-space: pre;" direction="ltr" dominant-baseline="text-before-edge">Time machine backups</text></g><g mask="url(#mask-wZGKf_U6nzDpi7yNxmRI1)" stroke-linecap="round"><g transform="translate(448.6998781526095 453.12869447913704) rotate(0 37.55587538154634 -106.14683640786683)"><path d="M-0.22 0.96 C6.62 -20.75, 29.06 -95.44, 41.91 -131.14 C54.77 -166.85, 71.18 -199.53, 76.91 -213.26 M-1.8 0.43 C4.88 -21.08, 28.26 -94.7, 41.35 -130.07 C54.43 -165.45, 70.79 -198.1, 76.7 -211.82" stroke="#000000" stroke-width="1" fill="none"></path></g><g transform="translate(448.6998781526095 453.12869447913704) rotate(0 37.55587538154634 -106.14683640786683)"><path d="M-0.02 -27.79 C-2.82 -16.19, -0.43 -6.13, -0.26 -0.84 M-1.98 -29.16 C-2.06 -20.44, -0.53 -10.28, -1.01 0.9" stroke="#000000" stroke-width="1" fill="none"></path></g><g transform="translate(448.6998781526095 453.12869447913704) rotate(0 37.55587538154634 -106.14683640786683)"><path d="M19.57 -21.68 C9.6 -12.37, 4.77 -4.56, -0.26 -0.84 M17.62 -23.05 C11.58 -16.19, 7.19 -7.88, -1.01 0.9" stroke="#000000" stroke-width="1" fill="none"></path></g><g transform="translate(448.6998781526095 453.12869447913704) rotate(0 37.55587538154634 -106.14683640786683)"><path d="M75.94 -180.7 C73.93 -191.16, 76.68 -203.16, 76.67 -213.63 M73.98 -182.07 C73.92 -191.44, 75.75 -199.38, 75.91 -211.88" stroke="#000000" stroke-width="1" fill="none"></path></g><g transform="translate(448.6998781526095 453.12869447913704) rotate(0 37.55587538154634 -106.14683640786683)"><path d="M57.27 -189.22 C62.08 -196.51, 71.71 -205.37, 76.67 -213.63 M55.32 -190.59 C60.94 -197.38, 68.4 -202.74, 75.91 -211.88" stroke="#000000" stroke-width="1" fill="none"></path></g></g><mask id="mask-wZGKf_U6nzDpi7yNxmRI1"><rect x="0" y="0" fill="#fff" width="624.5534122614723" height="766.6177930757333"></rect><rect x="389.7155471249065" y="298.8810714132735" fill="#000" width="200.33984375" height="48" opacity="1"></rect></mask><g transform="translate(389.7155471249065 298.8810714132735) rotate(0 96.54020640924932 48.10078665799671)"><text x="100.169921875" y="0" font-family="sans-serif" font-size="20px" fill="#000000" text-anchor="middle" style="white-space: pre;" direction="ltr" dominant-baseline="text-before-edge">ARP (IPv4) queries </text><text x="100.169921875" y="24" font-family="sans-serif" font-size="20px" fill="#000000" text-anchor="middle" style="white-space: pre;" direction="ltr" dominant-baseline="text-before-edge">for server</text></g><g mask="url(#mask-ptfxPFyr3eyDd6RoTwI7a)" stroke-linecap="round"><g transform="translate(669.204955120676 234.01403336141738) rotate(0 -72.320132813497 120.67759002724586)"><path d="M0.42 0.57 C6.29 36.31, 67.76 174.84, 35.87 214.88 C3.97 254.92, -153.25 236.79, -190.95 240.83 M-0.82 -0.17 C5.35 35.74, 69.77 176.65, 38.01 216.49 C6.25 256.32, -152.88 234.97, -191.4 238.84" stroke="#000000" stroke-width="1" fill="none"></path></g><g transform="translate(669.204955120676 234.01403336141738) rotate(0 -72.320132813497 120.67759002724586)"><path d="M18.7 23.24 C11.75 17.46, 6.51 9.78, -1.28 0.44 M17.91 24.57 C12.72 18.82, 7.94 13.24, 0.57 0.89" stroke="#000000" stroke-width="1" fill="none"></path></g><g transform="translate(669.204955120676 234.01403336141738) rotate(0 -72.320132813497 120.67759002724586)"><path d="M-1.09 28.65 C-1.07 20.89, 0.7 11.3, -1.28 0.44 M-1.88 29.99 C-2.19 22.75, -2.05 15.82, 0.57 0.89" stroke="#000000" stroke-width="1" fill="none"></path></g><g transform="translate(669.204955120676 234.01403336141738) rotate(0 -72.320132813497 120.67759002724586)"><path d="M-162.09 227.22 C-172.82 233.61, -181.95 238.05, -193.1 238.7 M-162.89 228.56 C-170.5 231.42, -178.03 234.38, -191.25 239.16" stroke="#000000" stroke-width="1" fill="none"></path></g><g transform="translate(669.204955120676 234.01403336141738) rotate(0 -72.320132813497 120.67759002724586)"><path d="M-162.43 247.74 C-173.11 246.87, -182.13 244.05, -193.1 238.7 M-163.23 249.08 C-170.95 246.83, -178.39 244.67, -191.25 239.16" stroke="#000000" stroke-width="1" fill="none"></path></g></g><mask id="mask-ptfxPFyr3eyDd6RoTwI7a"><rect x="0" y="0" fill="#fff" width="997.7194969115548" height="574.1731816920545"></rect><rect x="615.815825316522" y="424.761683291574" fill="#000" width="180.69984436035156" height="48" opacity="1"></rect></mask><g transform="translate(615.815825316522 424.76168329157395) rotate(0 -18.931003009343016 -70.07005990291071)"><text x="90.34992218017578" y="0" font-family="sans-serif" font-size="20px" fill="#000000" text-anchor="middle" style="white-space: pre;" direction="ltr" dominant-baseline="text-before-edge">mDNS queries for </text><text x="90.34992218017578" y="24" font-family="sans-serif" font-size="20px" fill="#000000" text-anchor="middle" style="white-space: pre;" direction="ltr" dominant-baseline="text-before-edge">server</text></g><g stroke-linecap="round"><g transform="translate(368.0741966074164 486.13827908165786) rotate(0 -135.36968297610662 -105.99790941145451)"><path d="M-0.66 -0.89 C-32.03 -9.27, -142.44 -15.31, -187.56 -50.35 C-232.67 -85.39, -257.42 -184.19, -271.37 -211.15 M1.19 1.25 C-30.43 -6.92, -143.19 -13.05, -188.71 -48.8 C-234.23 -84.55, -258.26 -186.18, -271.93 -213.25" stroke="#000000" stroke-width="1" fill="none"></path></g><g transform="translate(368.0741966074164 486.13827908165786) rotate(0 -135.36968297610662 -105.99790941145451)"><path d="M-253.84 -191.16 C-259.27 -198.03, -265.49 -205.91, -272.73 -214.94 M-252.17 -189.53 C-257.03 -196.16, -261.95 -201.53, -270.93 -213.19" stroke="#000000" stroke-width="1" fill="none"></path></g><g transform="translate(368.0741966074164 486.13827908165786) rotate(0 -135.36968297610662 -105.99790941145451)"><path d="M-273.04 -183.9 C-271.64 -193.25, -271.04 -203.7, -272.73 -214.94 M-271.36 -182.27 C-271.79 -190.49, -272.34 -197.51, -270.93 -213.19" stroke="#000000" stroke-width="1" fill="none"></path></g></g><mask></mask><g stroke-linecap="round" transform="translate(779.3903063766257 20.41419264211504) rotate(0 31.632994168609628 38.232323349387)"><path d="M63.27 38.23 C63.27 40.23, 63.13 42.24, 62.88 44.21 C62.62 46.18, 62.23 48.15, 61.72 50.05 C61.21 51.94, 60.57 53.81, 59.82 55.59 C59.07 57.37, 58.19 59.09, 57.22 60.7 C56.26 62.32, 55.17 63.86, 54 65.27 C52.83 66.68, 51.56 67.99, 50.23 69.16 C48.89 70.33, 47.46 71.39, 45.99 72.3 C44.52 73.2, 42.98 73.98, 41.41 74.59 C39.84 75.21, 38.21 75.68, 36.58 75.99 C34.95 76.31, 33.28 76.46, 31.63 76.46 C29.98 76.46, 28.31 76.31, 26.68 75.99 C25.06 75.68, 23.43 75.21, 21.86 74.59 C20.29 73.98, 18.74 73.2, 17.27 72.3 C15.8 71.39, 14.37 70.33, 13.04 69.16 C11.71 67.99, 10.43 66.68, 9.27 65.27 C8.1 63.86, 7.01 62.32, 6.04 60.7 C5.07 59.09, 4.2 57.37, 3.45 55.59 C2.7 53.81, 2.06 51.94, 1.55 50.05 C1.04 48.15, 0.65 46.18, 0.39 44.21 C0.13 42.24, 0 40.23, 0 38.23 C0 36.24, 0.13 34.22, 0.39 32.25 C0.65 30.28, 1.04 28.31, 1.55 26.42 C2.06 24.52, 2.7 22.65, 3.45 20.88 C4.2 19.1, 5.07 17.37, 6.04 15.76 C7.01 14.15, 8.1 12.61, 9.27 11.2 C10.43 9.79, 11.71 8.47, 13.04 7.3 C14.37 6.13, 15.8 5.07, 17.27 4.17 C18.74 3.26, 20.29 2.49, 21.86 1.87 C23.43 1.26, 25.06 0.78, 26.68 0.47 C28.31 0.16, 29.98 0, 31.63 0 C33.28 0, 34.95 0.16, 36.58 0.47 C38.21 0.78, 39.84 1.26, 41.41 1.87 C42.98 2.49, 44.52 3.26, 45.99 4.17 C47.46 5.07, 48.89 6.13, 50.23 7.3 C51.56 8.47, 52.83 9.79, 54 11.2 C55.17 12.61, 56.26 14.15, 57.22 15.76 C58.19 17.37, 59.07 19.1, 59.82 20.88 C60.57 22.65, 61.21 24.52, 61.72 26.42 C62.23 28.31, 62.62 30.28, 62.88 32.25 C63.13 34.22, 63.2 37.24, 63.27 38.23 C63.33 39.23, 63.33 37.24, 63.27 38.23" stroke="transparent" stroke-width="1" fill="none"></path></g><g stroke-linecap="round"><g transform="translate(783.9153832326249 65.75428025962105) rotate(0 26.448638628346146 11.561387201477402)" fill-rule="evenodd"><path d="M0 0 L0.11 9.42 L40.66 29.72 L52.4 21.41 L52.9 12.3 L13.58 -6.6 L0 0" stroke="none" stroke-width="0" fill="#ced4da" fill-rule="evenodd"></path><path d="M0 0 C0.04 3.42, 0.08 6.84, 0.11 9.42 M0 0 C0.04 3.25, 0.08 6.5, 0.11 9.42 M0.11 9.42 C13.46 16.11, 26.81 22.79, 40.66 29.72 M0.11 9.42 C9.03 13.89, 17.95 18.35, 40.66 29.72 M40.66 29.72 C44.43 27.05, 48.21 24.37, 52.4 21.41 M40.66 29.72 C43.91 27.42, 47.15 25.12, 52.4 21.41 M52.4 21.41 C52.51 19.37, 52.62 17.33, 52.9 12.3 M52.4 21.41 C52.53 19.07, 52.65 16.73, 52.9 12.3 M52.9 12.3 C43.89 7.97, 34.89 3.64, 13.58 -6.6 M52.9 12.3 C38.85 5.54, 24.79 -1.21, 13.58 -6.6 M13.58 -6.6 C9.06 -4.4, 4.54 -2.2, 0 0 M13.58 -6.6 C9.59 -4.66, 5.59 -2.72, 0 0 M0 0 C0 0, 0 0, 0 0 M0 0 C0 0, 0 0, 0 0" stroke="#495057" stroke-width="2" fill="none"></path></g></g><mask></mask><g stroke-linecap="round"><g transform="translate(784.8820899178966 66.05440656206179) rotate(0 25.61716812233965 10.19177464623121)"><path d="M0 0 C13.2 6.89, 26.4 13.78, 39.05 20.38 M0 0 C11.79 6.15, 23.58 12.31, 39.05 20.38 M39.05 20.38 C42.53 17.95, 46.01 15.52, 51.23 11.87 M39.05 20.38 C42.05 18.29, 45.05 16.2, 51.23 11.87" stroke="#495057" stroke-width="2" fill="none"></path></g></g><mask></mask><g stroke-linecap="round"><g transform="translate(824.3966779881132 95.1373483545201) rotate(0 -0.08865561764929453 -4.015930478814937)"><path d="M0 0 C-0.07 -3.15, -0.14 -6.3, -0.18 -8.03 M0 0 C-0.05 -2.37, -0.1 -4.74, -0.18 -8.03" stroke="#495057" stroke-width="2" fill="none"></path></g></g><mask></mask><g stroke-linecap="round"><g transform="translate(800.8789302720459 24.893123882672853) rotate(0 18.915880487914876 25.701680357781697)" fill-rule="evenodd"><path d="M0 0 L17.29 2.31 L27.29 6.68 L35.48 12.76 L38.11 20.59 L38.32 35.91 L36.94 42.15 L33.09 47.71 L28.44 51.04 L25.26 51.07 L20.7 46.63 L10.5 33.98 L1.16 19.81 L-0.4 14.55 L0.25 3.22" stroke="none" stroke-width="0" fill="#ced4da" fill-rule="evenodd"></path><path d="M0 0 C2.88 0.38, 11.38 0.18, 17.29 2.31 C23.21 4.44, 31.98 8.35, 35.48 12.76 C38.98 17.17, 38.06 23.88, 38.3 28.78 C38.54 33.67, 38.58 38.44, 36.94 42.15 C35.29 45.86, 31.14 50.29, 28.44 51.04 C25.73 51.79, 25.25 51.83, 20.7 46.63 C16.16 41.42, 4.57 27.04, 1.16 19.81 C-2.25 12.57, 0.4 5.98, 0.25 3.22 M0 0 C2.88 0.38, 11.38 0.18, 17.29 2.31 C23.21 4.44, 31.98 8.35, 35.48 12.76 C38.98 17.17, 38.06 23.88, 38.3 28.78 C38.54 33.67, 38.58 38.44, 36.94 42.15 C35.29 45.86, 31.14 50.29, 28.44 51.04 C25.73 51.79, 25.25 51.83, 20.7 46.63 C16.16 41.42, 4.57 27.04, 1.16 19.81 C-2.25 12.57, 0.4 5.98, 0.25 3.22" stroke="#495057" stroke-width="2" fill="none"></path></g></g><mask></mask><g stroke-linecap="round"><g transform="translate(787.4837501833183 50.58319441130675) rotate(0 23.935218500353926 1.0837497832572467)" fill-rule="evenodd"><path d="M0 0 L0.13 5.97 L1.16 9.94 L4.31 13.76 L10.96 17.89 L29.51 26.28 L36.67 28.29 L40.93 28.17 L43.58 26.52 L46.49 19.51 L47.86 5.83 L46.87 -7.86 L45.62 -11.37 L43.87 -13.42 L32.44 -19.37 L18.9 -24.74 L13.34 -26.08 L6.16 -25.52 L1.8 -21.15 L0.63 -16.51 L0 0" stroke="none" stroke-width="0" fill="#ced4da" fill-rule="evenodd"></path><path d="M0 0 C0.72 2.29, -1.8 9.05, 4.31 13.76 C10.42 18.48, 29.64 27.33, 36.67 28.29 C43.7 29.25, 44.79 25.53, 46.49 19.51 C48.19 13.48, 48.32 -1.82, 46.87 -7.86 C45.42 -13.9, 43.36 -13.7, 37.77 -16.74 C32.18 -19.77, 19.34 -25.34, 13.34 -26.08 C7.35 -26.82, 4.03 -25.5, 1.8 -21.15 C-0.42 -16.81, 0.3 -3.53, 0 0 M0 0 C0.72 2.29, -1.8 9.05, 4.31 13.76 C10.42 18.48, 29.64 27.33, 36.67 28.29 C43.7 29.25, 44.79 25.53, 46.49 19.51 C48.19 13.48, 48.32 -1.82, 46.87 -7.86 C45.42 -13.9, 43.36 -13.7, 37.77 -16.74 C32.18 -19.77, 19.34 -25.34, 13.34 -26.08 C7.35 -26.82, 4.03 -25.5, 1.8 -21.15 C-0.42 -16.81, 0.3 -3.53, 0 0" stroke="#495057" stroke-width="2" fill="none"></path></g></g><mask></mask><g stroke-linecap="round"><g transform="translate(790.6655683651363 50.137816466073446) rotate(0 20.42976942490759 0.9579109377231418)" fill-rule="evenodd"><path d="M0 0 L1.08 8.37 L3.62 11.57 L16.04 18.6 L29.29 23.59 L36.07 23.37 L39.65 18.69 L40.86 7.06 L39.77 -5.08 L37.05 -10.57 L31.74 -14.07 L15.88 -20.83 L11.21 -21.92 L5.18 -21.45 L1.52 -17.78 L0.53 -13.88 L0 0" stroke="none" stroke-width="0" fill="#343a40" fill-rule="evenodd"></path><path d="M0 0 C0.6 1.93, -1.26 7.63, 3.62 11.57 C8.51 15.5, 23.29 22.4, 29.29 23.59 C35.3 24.77, 37.9 23.46, 39.65 18.69 C41.39 13.91, 41.09 0.38, 39.77 -5.08 C38.46 -10.53, 36.5 -11.26, 31.74 -14.07 C26.98 -16.87, 16.25 -21.3, 11.21 -21.92 C6.17 -22.54, 3.38 -21.43, 1.52 -17.78 C-0.35 -14.12, 0.25 -2.96, 0 0 M0 0 C0.6 1.93, -1.26 7.63, 3.62 11.57 C8.51 15.5, 23.29 22.4, 29.29 23.59 C35.3 24.77, 37.9 23.46, 39.65 18.69 C41.39 13.91, 41.09 0.38, 39.77 -5.08 C38.46 -10.53, 36.5 -11.26, 31.74 -14.07 C26.98 -16.87, 16.25 -21.3, 11.21 -21.92 C6.17 -22.54, 3.38 -21.43, 1.52 -17.78 C-0.35 -14.12, 0.25 -2.96, 0 0" stroke="#495057" stroke-width="2" fill="none"></path></g></g><mask></mask><g stroke-linecap="round"><g transform="translate(812.9392982987208 84.3892742680539) rotate(0 4.027777777777828 3.101851851851734)" fill-rule="evenodd"><path d="M0 0 L8.02 4.03 L8.06 6.2 L0.15 2.37 L0 0" stroke="none" stroke-width="0" fill="#495057" fill-rule="evenodd"></path><path d="M0 0 C2.03 1.02, 4.06 2.04, 8.02 4.03 M0 0 C2.6 1.31, 5.2 2.61, 8.02 4.03 M8.02 4.03 C8.03 4.48, 8.04 4.92, 8.06 6.2 M8.02 4.03 C8.04 4.88, 8.05 5.72, 8.06 6.2 M8.06 6.2 C6.27 5.33, 4.48 4.47, 0.15 2.37 M8.06 6.2 C5.5 4.96, 2.95 3.72, 0.15 2.37 M0.15 2.37 C0.1 1.53, 0.04 0.69, 0 0 M0.15 2.37 C0.11 1.72, 0.07 1.08, 0 0 M0 0 C0 0, 0 0, 0 0 M0 0 C0 0, 0 0, 0 0" stroke="#495057" stroke-width="1" fill="none"></path></g></g><mask></mask><g stroke-linecap="round" transform="translate(341.41908610489315 20.48355388495986) rotate(0 31.632994168609628 38.232323349387)"><path d="M63.27 38.23 C63.27 40.23, 63.13 42.24, 62.88 44.21 C62.62 46.18, 62.23 48.15, 61.72 50.05 C61.21 51.94, 60.57 53.81, 59.82 55.59 C59.07 57.37, 58.19 59.09, 57.22 60.7 C56.26 62.32, 55.17 63.86, 54 65.27 C52.83 66.68, 51.56 67.99, 50.23 69.16 C48.89 70.33, 47.46 71.39, 45.99 72.3 C44.52 73.2, 42.98 73.98, 41.41 74.59 C39.84 75.21, 38.21 75.68, 36.58 75.99 C34.95 76.31, 33.28 76.46, 31.63 76.46 C29.98 76.46, 28.31 76.31, 26.68 75.99 C25.06 75.68, 23.43 75.21, 21.86 74.59 C20.29 73.98, 18.74 73.2, 17.27 72.3 C15.8 71.39, 14.37 70.33, 13.04 69.16 C11.71 67.99, 10.43 66.68, 9.27 65.27 C8.1 63.86, 7.01 62.32, 6.04 60.7 C5.07 59.09, 4.2 57.37, 3.45 55.59 C2.7 53.81, 2.06 51.94, 1.55 50.05 C1.04 48.15, 0.65 46.18, 0.39 44.21 C0.13 42.24, 0 40.23, 0 38.23 C0 36.24, 0.13 34.22, 0.39 32.25 C0.65 30.28, 1.04 28.31, 1.55 26.42 C2.06 24.52, 2.7 22.65, 3.45 20.88 C4.2 19.1, 5.07 17.37, 6.04 15.76 C7.01 14.15, 8.1 12.61, 9.27 11.2 C10.43 9.79, 11.71 8.47, 13.04 7.3 C14.37 6.13, 15.8 5.07, 17.27 4.17 C18.74 3.26, 20.29 2.49, 21.86 1.87 C23.43 1.26, 25.06 0.78, 26.68 0.47 C28.31 0.16, 29.98 0, 31.63 0 C33.28 0, 34.95 0.16, 36.58 0.47 C38.21 0.78, 39.84 1.26, 41.41 1.87 C42.98 2.49, 44.52 3.26, 45.99 4.17 C47.46 5.07, 48.89 6.13, 50.23 7.3 C51.56 8.47, 52.83 9.79, 54 11.2 C55.17 12.61, 56.26 14.15, 57.22 15.76 C58.19 17.37, 59.07 19.1, 59.82 20.88 C60.57 22.65, 61.21 24.52, 61.72 26.42 C62.23 28.31, 62.62 30.28, 62.88 32.25 C63.13 34.22, 63.2 37.24, 63.27 38.23 C63.33 39.23, 63.33 37.24, 63.27 38.23" stroke="transparent" stroke-width="1" fill="none"></path></g><g stroke-linecap="round"><g transform="translate(345.9441629608922 65.82364150246588) rotate(0 26.448638628346117 11.561387201477402)" fill-rule="evenodd"><path d="M0 0 L0.11 9.42 L40.66 29.72 L52.4 21.41 L52.9 12.3 L13.58 -6.6 L0 0" stroke="none" stroke-width="0" fill="#ced4da" fill-rule="evenodd"></path><path d="M0 0 C0.03 2.27, 0.06 4.55, 0.11 9.42 M0 0 C0.03 2.53, 0.06 5.07, 0.11 9.42 M0.11 9.42 C13.53 16.14, 26.95 22.86, 40.66 29.72 M0.11 9.42 C11.12 14.93, 22.13 20.45, 40.66 29.72 M40.66 29.72 C43.49 27.71, 46.33 25.7, 52.4 21.41 M40.66 29.72 C44.39 27.07, 48.13 24.43, 52.4 21.41 M52.4 21.41 C52.5 19.48, 52.61 17.56, 52.9 12.3 M52.4 21.41 C52.56 18.49, 52.72 15.58, 52.9 12.3 M52.9 12.3 C40.78 6.47, 28.66 0.65, 13.58 -6.6 M52.9 12.3 C44.58 8.3, 36.27 4.31, 13.58 -6.6 M13.58 -6.6 C9.59 -4.66, 5.6 -2.72, 0 0 M13.58 -6.6 C8.87 -4.31, 4.17 -2.02, 0 0 M0 0 C0 0, 0 0, 0 0 M0 0 C0 0, 0 0, 0 0" stroke="#495057" stroke-width="2" fill="none"></path></g></g><mask></mask><g stroke-linecap="round"><g transform="translate(346.91086964616386 66.1237678049066) rotate(0 25.61716812233965 10.19177464623121)"><path d="M0 0 C9.16 4.78, 18.33 9.57, 39.05 20.38 M0 0 C14.58 7.61, 29.16 15.22, 39.05 20.38 M39.05 20.38 C41.68 18.54, 44.32 16.7, 51.23 11.87 M39.05 20.38 C43.59 17.21, 48.14 14.04, 51.23 11.87" stroke="#495057" stroke-width="2" fill="none"></path></g></g><mask></mask><g stroke-linecap="round"><g transform="translate(386.4254577163805 95.20670959736492) rotate(0 -0.08865561764929453 -4.015930478814937)"><path d="M0 0 C-0.04 -1.93, -0.09 -3.87, -0.18 -8.03 M0 0 C-0.04 -1.96, -0.09 -3.91, -0.18 -8.03" stroke="#495057" stroke-width="2" fill="none"></path></g></g><mask></mask><g stroke-linecap="round"><g transform="translate(362.90771000031316 24.962485125517674) rotate(0 18.915880487914848 25.701680357781697)" fill-rule="evenodd"><path d="M0 0 L17.29 2.31 L27.29 6.68 L35.48 12.76 L38.11 20.59 L38.32 35.91 L36.94 42.15 L33.09 47.71 L28.44 51.04 L25.26 51.07 L20.7 46.63 L10.5 33.98 L1.16 19.81 L-0.4 14.55 L0.25 3.22" stroke="none" stroke-width="0" fill="#ced4da" fill-rule="evenodd"></path><path d="M0 0 C2.88 0.38, 11.38 0.18, 17.29 2.31 C23.21 4.44, 31.98 8.35, 35.48 12.76 C38.98 17.17, 38.06 23.88, 38.3 28.78 C38.54 33.67, 38.58 38.44, 36.94 42.15 C35.29 45.86, 31.14 50.29, 28.44 51.04 C25.73 51.79, 25.25 51.83, 20.7 46.63 C16.16 41.42, 4.57 27.04, 1.16 19.81 C-2.25 12.57, 0.4 5.98, 0.25 3.22 M0 0 C2.88 0.38, 11.38 0.18, 17.29 2.31 C23.21 4.44, 31.98 8.35, 35.48 12.76 C38.98 17.17, 38.06 23.88, 38.3 28.78 C38.54 33.67, 38.58 38.44, 36.94 42.15 C35.29 45.86, 31.14 50.29, 28.44 51.04 C25.73 51.79, 25.25 51.83, 20.7 46.63 C16.16 41.42, 4.57 27.04, 1.16 19.81 C-2.25 12.57, 0.4 5.98, 0.25 3.22" stroke="#495057" stroke-width="2" fill="none"></path></g></g><mask></mask><g stroke-linecap="round"><g transform="translate(349.5125299115856 50.65255565415157) rotate(0 23.935218500353926 1.0837497832572467)" fill-rule="evenodd"><path d="M0 0 L0.13 5.97 L1.16 9.94 L4.31 13.76 L10.96 17.89 L29.51 26.28 L36.67 28.29 L40.93 28.17 L43.58 26.52 L46.49 19.51 L47.86 5.83 L46.87 -7.86 L45.62 -11.37 L43.87 -13.42 L32.44 -19.37 L18.9 -24.74 L13.34 -26.08 L6.16 -25.52 L1.8 -21.15 L0.63 -16.51 L0 0" stroke="none" stroke-width="0" fill="#ced4da" fill-rule="evenodd"></path><path d="M0 0 C0.72 2.29, -1.8 9.05, 4.31 13.76 C10.42 18.48, 29.64 27.33, 36.67 28.29 C43.7 29.25, 44.79 25.53, 46.49 19.51 C48.19 13.48, 48.32 -1.82, 46.87 -7.86 C45.42 -13.9, 43.36 -13.7, 37.77 -16.74 C32.18 -19.77, 19.34 -25.34, 13.34 -26.08 C7.35 -26.82, 4.03 -25.5, 1.8 -21.15 C-0.42 -16.81, 0.3 -3.53, 0 0 M0 0 C0.72 2.29, -1.8 9.05, 4.31 13.76 C10.42 18.48, 29.64 27.33, 36.67 28.29 C43.7 29.25, 44.79 25.53, 46.49 19.51 C48.19 13.48, 48.32 -1.82, 46.87 -7.86 C45.42 -13.9, 43.36 -13.7, 37.77 -16.74 C32.18 -19.77, 19.34 -25.34, 13.34 -26.08 C7.35 -26.82, 4.03 -25.5, 1.8 -21.15 C-0.42 -16.81, 0.3 -3.53, 0 0" stroke="#495057" stroke-width="2" fill="none"></path></g></g><mask></mask><g stroke-linecap="round"><g transform="translate(352.6943480934036 50.207177708918266) rotate(0 20.42976942490759 0.9579109377231418)" fill-rule="evenodd"><path d="M0 0 L1.08 8.37 L3.62 11.57 L16.04 18.6 L29.29 23.59 L36.07 23.37 L39.65 18.69 L40.86 7.06 L39.77 -5.08 L37.05 -10.57 L31.74 -14.07 L15.88 -20.83 L11.21 -21.92 L5.18 -21.45 L1.52 -17.78 L0.53 -13.88 L0 0" stroke="none" stroke-width="0" fill="#343a40" fill-rule="evenodd"></path><path d="M0 0 C0.6 1.93, -1.26 7.63, 3.62 11.57 C8.51 15.5, 23.29 22.4, 29.29 23.59 C35.3 24.77, 37.9 23.46, 39.65 18.69 C41.39 13.91, 41.09 0.38, 39.77 -5.08 C38.46 -10.53, 36.5 -11.26, 31.74 -14.07 C26.98 -16.87, 16.25 -21.3, 11.21 -21.92 C6.17 -22.54, 3.38 -21.43, 1.52 -17.78 C-0.35 -14.12, 0.25 -2.96, 0 0 M0 0 C0.6 1.93, -1.26 7.63, 3.62 11.57 C8.51 15.5, 23.29 22.4, 29.29 23.59 C35.3 24.77, 37.9 23.46, 39.65 18.69 C41.39 13.91, 41.09 0.38, 39.77 -5.08 C38.46 -10.53, 36.5 -11.26, 31.74 -14.07 C26.98 -16.87, 16.25 -21.3, 11.21 -21.92 C6.17 -22.54, 3.38 -21.43, 1.52 -17.78 C-0.35 -14.12, 0.25 -2.96, 0 0" stroke="#495057" stroke-width="2" fill="none"></path></g></g><mask></mask><g stroke-linecap="round"><g transform="translate(374.9680780269881 84.45863551089872) rotate(0 4.027777777777828 3.101851851851734)" fill-rule="evenodd"><path d="M0 0 L8.02 4.03 L8.06 6.2 L0.15 2.37 L0 0" stroke="none" stroke-width="0" fill="#495057" fill-rule="evenodd"></path><path d="M0 0 C2.08 1.05, 4.16 2.09, 8.02 4.03 M0 0 C2.32 1.17, 4.64 2.33, 8.02 4.03 M8.02 4.03 C8.03 4.54, 8.04 5.05, 8.06 6.2 M8.02 4.03 C8.04 4.85, 8.05 5.67, 8.06 6.2 M8.06 6.2 C6.4 5.4, 4.75 4.6, 0.15 2.37 M8.06 6.2 C5.47 4.95, 2.88 3.69, 0.15 2.37 M0.15 2.37 C0.09 1.42, 0.03 0.48, 0 0 M0.15 2.37 C0.1 1.56, 0.05 0.75, 0 0 M0 0 C0 0, 0 0, 0 0 M0 0 C0 0, 0 0, 0 0" stroke="#495057" stroke-width="1" fill="none"></path></g></g><mask></mask><g mask="url(#mask-VP8LlAVu8NKKfkbdJKxEt)" stroke-linecap="round"><g transform="translate(465.15456435686497 463.8343546452154) rotate(0 66.28060163493095 -112.65895208856443)"><path d="M-0.61 -0.46 C20.69 -12.59, 110.53 -34.98, 128.32 -72.03 C146.1 -109.08, 109.55 -197.68, 106.09 -222.77 M1.28 -1.74 C22.34 -14.24, 109.38 -36.36, 127.27 -73.55 C145.15 -110.73, 111.75 -199.66, 108.57 -224.86" stroke="#000000" stroke-width="1" fill="none"></path></g><g transform="translate(465.15456435686497 463.8343546452154) rotate(0 66.28060163493095 -112.65895208856443)"><path d="M20.43 -21.39 C15.69 -15.33, 7 -5.74, 0.54 1.21 M20.35 -21.13 C14.16 -14.45, 7.07 -6.11, -0.63 -0.18" stroke="#000000" stroke-width="1" fill="none"></path></g><g transform="translate(465.15456435686497 463.8343546452154) rotate(0 66.28060163493095 -112.65895208856443)"><path d="M28.58 -2.55 C20.89 -3.06, 9.39 0, 0.54 1.21 M28.5 -2.3 C19.64 -2.12, 9.75 -0.24, -0.63 -0.18" stroke="#000000" stroke-width="1" fill="none"></path></g><g transform="translate(465.15456435686497 463.8343546452154) rotate(0 66.28060163493095 -112.65895208856443)"><path d="M124.37 -200.17 C121.15 -209.89, 114.29 -216.11, 109.72 -223.2 M124.28 -199.91 C120.21 -208.88, 114.93 -216.21, 108.55 -224.59" stroke="#000000" stroke-width="1" fill="none"></path></g><g transform="translate(465.15456435686497 463.8343546452154) rotate(0 66.28060163493095 -112.65895208856443)"><path d="M104.41 -195.38 C108.08 -206.66, 108.13 -214.54, 109.72 -223.2 M104.33 -195.12 C107.14 -205.67, 108.71 -214.64, 108.55 -224.59" stroke="#000000" stroke-width="1" fill="none"></path></g></g><mask id="mask-VP8LlAVu8NKKfkbdJKxEt"><rect x="0" y="0" fill="#fff" width="693.6646054942727" height="787.0771314837634"></rect><rect x="492.5946897227883" y="366.6530848382372" fill="#000" width="202.13983154296875" height="48" opacity="1"></rect></mask><g transform="translate(492.5946897227883 366.6530848382372) rotate(0 38.84047626900761 -15.477682281586226)"><text x="101.06991577148438" y="0" font-family="sans-serif" font-size="20px" fill="#000000" text-anchor="middle" style="white-space: pre;" direction="ltr" dominant-baseline="text-before-edge">NDP (IPv6) queries </text><text x="101.06991577148438" y="24" font-family="sans-serif" font-size="20px" fill="#000000" text-anchor="middle" style="white-space: pre;" direction="ltr" dominant-baseline="text-before-edge">for server</text></g></svg>